<?xml version="1.0" encoding="UTF-8" standalone="no"?>
<!DOCTYPE svg PUBLIC "-//W3C//DTD SVG 1.1//EN" "http://www.w3.org/Graphics/SVG/1.1/DTD/svg11.dtd">
<svg width="100%" height="100%" viewBox="0 0 600 600" version="1.1" xmlns="http://www.w3.org/2000/svg" xmlns:xlink="http://www.w3.org/1999/xlink" xml:space="preserve" xmlns:serif="http://www.serif.com/" style="fill-rule:evenodd;clip-rule:evenodd;stroke-linecap:round;stroke-linejoin:round;stroke-miterlimit:1.5;">
    <path d="M249.76,415.741L181.515,545.971L262.682,480.351L262.682,447.844L249.76,415.741Z" style="fill:rgb(139,114,172);stroke:rgb(39,55,67);stroke-width:6.25px;"/>
    <path d="M251.801,415.274L232.115,348.896L181.891,543.485L251.801,415.274Z" style="fill:rgb(107,186,213);stroke:rgb(39,55,67);stroke-width:6.25px;"/>
    <path d="M262.906,450.103L340.136,269.395L233.63,343.092L262.906,450.103Z" style="fill:rgb(47,162,169);stroke:rgb(39,55,67);stroke-width:6.25px;"/>
    <path d="M405.252,334.51L340.136,269.395L263.411,450.103L405.252,334.51Z" style="fill:rgb(141,116,174);stroke:rgb(39,55,67);stroke-width:6.25px;"/>
    <path d="M405.252,332.239L382.032,220.937L343.165,268.89L405.252,332.239Z" style="fill:rgb(181,156,195);stroke:rgb(39,55,67);stroke-width:6.25px;"/>
    <path d="M302.026,215.89L382.032,220.937L341.146,268.638L302.026,215.89Z" style="fill:rgb(83,177,185);stroke:rgb(39,55,67);stroke-width:6.25px;"/>
    <path d="M382.032,220.937L357.298,177.779L306.821,213.366L382.032,220.937Z" style="fill:rgb(199,230,225);stroke:rgb(39,55,67);stroke-width:6.25px;"/>
    <path d="M377.994,161.122L303.793,213.366L324.236,149.765L379.761,161.122" style="fill:rgb(76,144,181);stroke:rgb(39,55,67);stroke-width:6.25px;"/>
    <path d="M442.857,178.284L379.761,161.122L358.056,178.284L381.78,219.675L442.857,178.284Z" style="fill:rgb(184,153,194);stroke:rgb(39,55,67);stroke-width:6.25px;"/>
    <path d="M405.252,332.239L419.133,241.633L382.032,220.937L405.252,332.239Z" style="fill:rgb(184,214,212);stroke:rgb(39,55,67);stroke-width:6.25px;"/>
    <path d="M340.641,269.9L254.325,150.017L232.62,343.849L340.641,269.9Z" style="fill:rgb(66,139,184);stroke:rgb(39,55,67);stroke-width:6.25px;"/>
    <path d="M254.325,150.017L179.872,292.867L231.106,342.839L254.325,150.017Z" style="fill:rgb(146,159,201);stroke:rgb(39,55,67);stroke-width:6.25px;"/>
    <path d="M143.276,258.795L179.872,292.867L254.83,149.512L143.276,258.795Z" style="fill:rgb(128,199,203);stroke:rgb(39,55,67);stroke-width:6.25px;"/>
    <path d="M254.83,149.512L84.47,199.484L142.519,257.281L254.83,149.512Z" style="fill:rgb(89,172,202);stroke:rgb(39,55,67);stroke-width:6.25px;"/>
    <path d="M13.045,128.817L84.47,199.484L254.83,149.007L13.045,128.817Z" style="fill:rgb(133,193,230);stroke:rgb(39,55,67);stroke-width:6.25px;"/>
    <path d="M254.83,149.007L84.47,57.644L112.99,135.631L254.83,149.007Z" style="fill:rgb(87,116,174);stroke:rgb(39,55,67);stroke-width:6.25px;"/>
    <path d="M324.488,149.007L380.518,115.188L380.518,161.374L324.488,149.007Z" style="fill:rgb(81,165,199);stroke:rgb(39,55,67);stroke-width:6.25px;"/>
    <path d="M382.285,160.617L382.285,114.178L440.585,173.994L382.285,160.617Z" style="fill:rgb(116,193,213);stroke:rgb(39,55,67);stroke-width:6.25px;"/>
    <path d="M464.562,196.708L443.109,179.294L382.032,220.18L420.647,239.866L464.562,196.708Z" style="fill:rgb(191,223,220);stroke:rgb(39,55,67);stroke-width:6.25px;"/>
    <path d="M475.667,156.327L451.186,131.341L446.39,176.77L475.667,156.327Z" style="fill:rgb(177,217,217);stroke:rgb(39,55,67);stroke-width:6.25px;"/>
    <path d="M384.304,115.44L451.186,131.341L445.633,178.032L428.723,156.327L384.304,115.44Z" style="fill:rgb(95,170,201);stroke:rgb(39,55,67);stroke-width:6.25px;"/>
    <path d="M476.172,156.327L594.036,178.032L445.128,178.032L476.172,156.327Z" style="fill:rgb(145,144,178);stroke:rgb(39,55,67);stroke-width:6.25px;"/>
    <g transform="matrix(0.981944,0.0336001,0.0336001,0.937475,-6.59702,12.2762)">
        <path d="M180.087,293.115L156.868,336.324" style="fill:none;stroke:rgb(39,55,67);stroke-width:6.29px;"/>
    </g>
    <path d="M142.936,257.781L84.786,258.185" style="fill:none;stroke:rgb(39,55,67);stroke-width:6.25px;"/>
    <g transform="matrix(1.13534,0,0,1.13534,-8.82728,-41.833)">
        <circle cx="66.716" cy="264.343" r="13.427" style="fill:rgb(159,135,184);stroke:rgb(39,55,67);stroke-width:5.5px;"/>
    </g>
    <path d="M377.535,356.738L407.579,417.149" style="fill:none;stroke:rgb(39,55,67);stroke-width:6.25px;"/>
    <g transform="matrix(1,0,1.38778e-17,1,2.4229,-4.03816)">
        <circle cx="146.671" cy="352.577" r="15.446" style="fill:rgb(72,130,178);stroke:rgb(39,55,67);stroke-width:6.25px;"/>
    </g>
    <path d="M445.128,178.032L594.036,178.032L464.814,195.951L445.128,178.032Z" style="fill:rgb(119,118,156);stroke:rgb(39,55,67);stroke-width:6.25px;"/>
    <path d="M420.016,417.149L444.891,361.261" style="fill:none;stroke:rgb(39,55,67);stroke-width:6.25px;"/>
    <g transform="matrix(1.41667,0,0,1.41667,-202.359,-157.942)">
        <circle cx="434.877" cy="414.726" r="10.661" style="fill:rgb(142,140,179);stroke:rgb(39,55,67);stroke-width:4.41px;"/>
    </g>
    <g transform="matrix(1.41667,0,0,1.41667,-166.984,-239.836)">
        <circle cx="434.877" cy="414.726" r="10.661" style="fill:rgb(47,159,161);stroke:rgb(39,55,67);stroke-width:4.41px;"/>
    </g>
    <g transform="matrix(1,0,0,1,0.757155,2.27146)">
        <path d="M474.09,290.852L528.1,344.358L474.09,401.144" style="fill:none;stroke:rgb(39,55,67);stroke-width:17.31px;"/>
    </g>
    <g transform="matrix(-1,0,0,1,598.583,1.068)">
        <path d="M474.09,290.852L528.1,344.358L474.09,401.144" style="fill:none;stroke:rgb(39,55,67);stroke-width:17.31px;"/>
    </g>
    <g transform="matrix(1.03583,0,0,1.03583,-18.4964,-5.85256)">
        <circle cx="424.622" cy="163.33" r="11.294" style="fill:rgb(39,55,67);"/>
    </g>
</svg>
